<svg width="40" height="40" viewBox="0 0 512 512" xmlns="http://www.w3.org/2000/svg" role="img" aria-label="Skeleton skull inside code braces">
  <defs>
    <linearGradient id="bone" x1="120" y1="60" x2="390" y2="430" gradientUnits="userSpaceOnUse">
      <stop offset="0" stop-color="#ffffff"/>
      <stop offset="0.55" stop-color="#e8e5f2"/>
      <stop offset="1" stop-color="#b8add8"/>
    </linearGradient>
    <linearGradient id="brace" x1="70" y1="80" x2="450" y2="430" gradientUnits="userSpaceOnUse">
      <stop offset="0" stop-color="#ffffff"/>
      <stop offset="0.65" stop-color="#d8d3ef"/>
      <stop offset="1" stop-color="#8b5cf6"/>
    </linearGradient>
    <filter id="glow" x="-40%" y="-40%" width="180%" height="180%">
      <feGaussianBlur stdDeviation="5" result="blur"/>
      <feMerge>
        <feMergeNode in="blur"/>
        <feMergeNode in="SourceGraphic"/>
      </feMerge>
    </filter>
  </defs>
  <rect width="512" height="512" rx="96" fill="#080812"/>
  <g fill="none" stroke="url(#brace)" stroke-width="26" stroke-linecap="round" stroke-linejoin="round" filter="url(#glow)">
    <path d="M150 110H115C93 110 82 126 82 148V207C82 231 65 244 45 244C65 244 82 257 82 281V364C82 386 93 402 115 402H150"/>
    <path d="M362 110H397C419 110 430 126 430 148V207C430 231 447 244 467 244C447 244 430 257 430 281V364C430 386 419 402 397 402H362"/>
  </g>
  <g filter="url(#glow)">
    <path
      d="M256 92
         C179 92 128 148 128 224
         C128 266 146 292 166 309
         C179 320 180 343 180 365
         C180 390 201 406 226 406
         H286
         C311 406 332 390 332 365
         C332 343 333 320 346 309
         C366 292 384 266 384 224
         C384 148 333 92 256 92Z"
      fill="url(#bone)"
      stroke="#ffffff"
      stroke-width="6"
      stroke-linejoin="round"
    />
    <ellipse cx="210" cy="244" rx="45" ry="52" fill="#070711"/>
    <ellipse cx="302" cy="244" rx="45" ry="52" fill="#070711"/>
    <path
      d="M256 278
         C242 298 232 322 235 340
         C237 354 248 360 256 347
         C264 360 275 354 277 340
         C280 322 270 298 256 278Z"
      fill="#070711"
    />
    <path d="M173 302 C199 317 201 350 180 365" fill="none" stroke="#8f83b8" stroke-width="8" stroke-linecap="round" opacity="0.45"/>
    <path d="M339 302 C313 317 311 350 332 365" fill="none" stroke="#8f83b8" stroke-width="8" stroke-linecap="round" opacity="0.45"/>
    <g fill="#f8f7ff" stroke="#6f668f" stroke-width="3">
      <rect x="212" y="358" width="16" height="40" rx="8"/>
      <rect x="230" y="354" width="17" height="45" rx="8"/>
      <rect x="249" y="352" width="18" height="48" rx="9"/>
      <rect x="268" y="354" width="17" height="45" rx="8"/>
      <rect x="286" y="358" width="16" height="40" rx="8"/>
    </g>
    <g fill="none" stroke="#1c1b2f" stroke-width="4" stroke-linecap="round" stroke-linejoin="round">
      <path d="M195 146 L184 176 L197 194 L190 218"/>
      <path d="M318 145 L332 172 L324 192 L337 214"/>
      <path d="M286 118 L297 143 L292 163"/>
    </g>
  </g>
</svg>
